<svg width="871" height="673" viewBox="0 0 871 673" fill="none" xmlns="http://www.w3.org/2000/svg">
<path d="M783.939 264.264L757.16 251.207L759.17 250.243L785.949 263.301L783.939 264.264Z" fill="#00CCAA"/>
<path d="M760.541 264.185L758.539 263.209L785.404 250.332L787.408 251.31L760.541 264.185Z" fill="#00CCAA"/>
<path d="M561.244 163.002L559.942 165.297L567.507 168.856L568.809 166.562L561.244 163.002Z" fill="#00CCAA"/>
<path d="M718.087 239.701L703.029 232.617L704.331 230.322L719.389 237.406L718.087 239.701ZM687.971 225.532L672.913 218.447L674.215 216.153L689.273 223.238L687.971 225.532ZM657.855 211.363L642.797 204.278L644.099 201.984L659.157 209.068L657.855 211.363ZM627.74 197.194L612.681 190.11L613.984 187.815L629.042 194.899L627.74 197.194ZM597.624 183.025L582.566 175.941L583.868 173.646L598.926 180.73L597.624 183.025Z" fill="#00CCAA"/>
<path d="M734.447 244.491L733.144 246.785L740.71 250.345L742.012 248.05L734.447 244.491Z" fill="#00CCAA"/>
<path d="M162.017 334.565C162.015 335.372 161.983 336.172 161.923 336.965C161.586 341.539 160.3 346.013 158.135 350.152C158.118 350.187 158.099 350.22 158.082 350.253C157.981 350.445 157.878 350.637 157.772 350.826C157.128 351.996 156.414 353.134 155.634 354.233C152.07 359.28 147.195 363.449 141.439 366.373C135.682 369.297 129.222 370.884 122.63 370.996L122.957 391.797L128.148 389.331L129.068 390.935L122.989 393.823L123.6 432.455L123.607 432.971L119.597 433.769L119.607 433.251L121.079 370.993C115.773 370.906 110.539 369.86 105.679 367.917C100.82 365.974 96.4324 363.172 92.7716 359.673C92.5196 359.435 92.2703 359.188 92.0266 358.945L91.9988 358.917C88.9492 355.869 86.4863 352.376 84.714 348.583C84.7528 348.624 84.7943 348.662 84.8331 348.703C80.8276 340.102 80.5866 330.436 84.1597 321.684C87.7327 312.932 94.8491 305.757 104.051 301.629C104.19 301.567 104.332 301.506 104.471 301.444C113.572 297.49 123.976 296.795 133.619 299.494C143.263 302.194 151.442 308.091 156.536 316.018C156.779 316.393 157.014 316.776 157.241 317.161C160.404 322.51 162.046 328.493 162.017 334.565Z" fill="#00CCAA"/>
<path d="M156.554 350.268C185.644 350.366 209.299 328.984 209.389 302.509C209.478 276.034 185.969 254.493 156.879 254.394C127.789 254.296 104.134 275.678 104.044 302.153C103.955 328.628 127.464 350.169 156.554 350.268Z" fill="#00CCAA"/>
<path d="M117.935 270.181C112.986 280.624 112.28 292.331 115.942 303.209C119.605 314.087 127.397 323.428 137.927 329.562C148.457 335.697 161.038 338.225 173.423 336.696C185.807 335.166 197.188 329.678 205.531 321.213C202.508 327.593 197.996 333.298 192.309 337.932C186.622 342.567 179.895 346.019 172.594 348.052C165.293 350.084 157.593 350.647 150.027 349.702C142.461 348.757 135.21 346.326 128.777 342.579C122.344 338.831 116.882 333.855 112.77 327.997C108.658 322.139 105.994 315.538 104.963 308.651C103.931 301.765 104.557 294.757 106.797 288.115C109.037 281.472 112.837 275.353 117.935 270.181Z" fill="white"/>
<path d="M159.116 435.884L153.742 434.492L153.755 433.966L155.73 350.258L155.732 350.142L156.538 316.021V316.018L156.861 302.332L157.01 302.333L157.765 350.158L157.765 350.259L157.774 350.824L157.774 350.827L159.116 435.884Z" fill="white"/>
<path d="M164.996 374.291L156.275 378.433L157.481 380.535L166.202 376.392L164.996 374.291Z" fill="white"/>
<path d="M867.666 156.797C798.745 152.854 729.599 153.588 660.804 158.991C627.646 161.606 593.96 164.437 561.401 170.908C535.176 176.12 504.73 184.976 488.33 205.787C484.896 209.98 482.575 214.839 481.548 219.986C480.522 225.132 480.818 230.425 482.412 235.452C486.266 247.36 495.917 257.295 506.206 265.085C529.885 283.014 559.306 293.5 585.569 307.769C633.521 333.823 677.369 368.869 705.439 413.295C717.791 432.845 729.515 458.823 715.615 480.271C701.998 501.283 671.733 508.436 647.06 511.773C616.135 515.957 584.299 514.686 553.267 512.18C519.247 509.177 485.423 504.551 451.934 498.323C386.324 486.629 321.322 471.815 254.784 464.954C221.422 461.268 187.769 460.269 154.218 461.967C123.916 463.724 93.347 467.982 64.8533 477.827C42.8965 485.414 19.48 496.925 7.56841 516.215C-3.91386 534.81 0.467304 556.313 12.8433 573.547C27.7341 594.282 51.0154 608.536 75.2351 618.978C102.811 630.867 132.324 638.613 161.877 645.216C176.866 648.565 191.937 651.597 207.01 654.614C210.154 655.244 211.513 650.85 208.358 650.218C177.963 644.134 147.48 638.03 117.849 629.271C90.4292 621.165 62.3755 610.806 39.9557 593.905C21.818 580.232 4.59626 560.293 5.74601 537.692C6.90506 514.908 27.9667 499.069 48.5903 489.346C74.364 477.194 103.62 471.331 132.278 468.312C165.091 465.097 198.172 464.799 231.053 467.424C297.441 472.247 362.315 486.233 427.381 498.461C490.591 510.34 555.778 521.362 620.607 518.59C646.303 517.491 673.842 514.233 696.567 502.508C706.971 497.14 716.362 489.551 721.674 479.652C726.462 470.233 728.002 459.713 726.09 449.478C722.488 426.997 707.894 406.113 693.324 388.167C677.351 368.701 658.806 351.099 638.107 335.758C615.391 319.001 590.885 304.36 564.959 292.055C551.211 285.41 537.267 279.019 524.169 271.332C511.611 263.962 499.229 255.103 491.585 243.181C484.974 232.87 483.795 221.123 490.753 210.712C497.79 200.182 509.877 192.862 521.79 187.523C550.494 174.66 583.826 171.304 615.194 167.855C682.548 160.476 750.412 157.627 818.232 159.33C834.717 159.738 851.19 160.415 867.651 161.36C870.874 161.544 870.878 156.98 867.666 156.797Z" fill="white"/>
<path d="M798.333 8.27435L808.4 0.998664C800.602 0.188951 797.383 4.05025 796.061 7.11064C789.974 4.7868 783.329 7.78282 783.329 7.78282L803.399 14.4893C802.394 12.0218 800.637 9.86595 798.333 8.27435Z" fill="white"/>
<path d="M749.518 31.2505L759.585 23.9748C751.787 23.1651 748.568 27.0264 747.246 30.0868C741.159 27.7629 734.514 30.759 734.514 30.759L754.584 37.4654C753.579 34.998 751.821 32.8421 749.518 31.2505Z" fill="white"/>
<path d="M798.131 68.0555L808.198 60.7799C800.399 59.9702 797.181 63.8314 795.859 66.8918C789.772 64.568 783.127 67.564 783.127 67.564L803.197 74.2705C802.192 71.803 800.434 69.6471 798.131 68.0555Z" fill="white"/>
<path d="M647.547 78.3762C664.256 78.4327 677.844 66.1505 677.895 50.9431C677.947 35.7357 664.443 23.3618 647.733 23.3053C631.023 23.2488 617.436 35.531 617.384 50.7384C617.333 65.9458 630.837 78.3197 647.547 78.3762Z" fill="#FF6583"/>
<path d="M742.229 136.011L593.803 135.509C593.618 135.511 593.432 135.497 593.249 135.467L663.823 25.0489C664.254 24.3611 664.877 23.7897 665.63 23.3932C666.383 22.9968 667.238 22.7894 668.109 22.7924C668.979 22.7953 669.832 23.0084 670.583 23.41C671.333 23.8116 671.952 24.3871 672.378 25.0779L742.229 136.011Z" fill="#3F51B5"/>
<path d="M824.865 136.292L696.492 135.858L755.836 57.9494C756.411 57.2956 757.132 56.7595 757.95 56.376C758.768 55.9924 759.666 55.77 760.585 55.7231C761.504 55.6763 762.424 55.8061 763.285 56.1041C764.145 56.4022 764.928 56.8617 765.58 57.4529C765.748 57.6207 765.903 57.7981 766.045 57.9839L824.865 136.292Z" fill="#3F51B5"/>
<path d="M612.25 389.366C626.297 395.814 634.833 404.294 634.802 413.565C634.735 433.535 594.973 449.59 545.993 449.424C524.698 449.352 505.172 446.224 489.901 441.071C506.114 448.513 529.669 453.243 555.913 453.332C604.893 453.498 644.654 437.443 644.722 417.473C644.76 406.185 632.103 396.065 612.25 389.366Z" fill="#00CCAA"/>
<path d="M643.496 403.19C659.347 410.464 668.979 420.034 668.944 430.495C668.868 453.029 624.002 471.145 568.734 470.958C544.705 470.877 522.671 467.346 505.44 461.533C523.734 469.929 550.314 475.267 579.927 475.367C635.195 475.554 680.061 457.439 680.137 434.904C680.18 422.167 665.898 410.748 643.496 403.19Z" fill="#00CCAA"/>
<path d="M600.252 395.368C610.148 399.91 616.162 405.885 616.14 412.416C616.093 426.486 588.08 437.797 553.572 437.68C540.127 437.793 526.76 435.803 514.053 431.795C525.476 437.038 542.071 440.371 560.561 440.434C595.068 440.55 623.081 429.239 623.129 415.17C623.156 407.217 614.239 400.087 600.252 395.368Z" fill="#00CCAA"/>
<path d="M460.995 392.314C460.995 392.314 463.075 421.295 525.511 421.506C587.946 421.717 606.685 392.807 606.685 392.807L460.995 392.314Z" fill="white"/>
<path d="M549.873 316.595C540.88 310.333 529.577 307.478 518.329 308.629C528.369 310.867 537.225 316.252 543.342 323.839C549.459 331.425 552.445 340.728 551.778 350.115C551.111 359.501 546.832 368.372 539.693 375.171C532.554 381.969 523.01 386.26 512.737 387.291C522.553 389.482 532.896 388.531 542.028 384.598C551.16 380.665 558.524 373.99 562.881 365.695C567.238 357.4 568.324 347.99 565.955 339.048C563.586 330.107 557.907 322.178 549.873 316.595Z" fill="white"/>
<path d="M529.459 303.437L525.202 303.423L524.89 395.643L529.147 395.657L529.459 303.437Z" fill="white"/>
<path d="M809.455 235.865L809.432 235.829L809.382 233.576L822.778 215.999L809.404 231.89L809.354 232.366L808.959 214.353L820.54 196.122L808.938 211.188L809.184 173.873L809.184 173.749L809.18 173.871L808.316 203.278L797.858 191.296L808.273 205.812L807.989 221.922L798.382 206.166L807.946 224.291L807.319 259.922C808.209 259.931 809.089 259.92 809.961 259.89L809.438 236.048L809.455 235.865Z" fill="#00CCAA"/>
<path d="M745.575 243.397L745.552 243.361L745.502 241.108L758.898 223.532L745.524 239.422L745.474 239.898L745.079 221.885L756.66 203.654L745.057 218.721L745.304 181.405L745.304 181.281L745.3 181.403L744.435 210.811L733.978 198.829L744.393 213.344L744.109 229.454L734.502 213.698L744.066 231.823L743.439 267.454C744.328 267.463 745.209 267.453 746.081 267.422L745.557 243.581L745.575 243.397Z" fill="#00CCAA"/>
<path d="M776.874 218.966L776.851 218.93L776.801 216.677L790.197 199.1L776.823 214.991L776.774 215.467L776.379 197.454L787.959 179.223L776.357 194.29L776.604 156.974L776.603 156.85L776.6 156.972L775.735 186.379L765.277 174.398L775.693 188.913L775.409 205.023L765.801 189.267L775.365 207.392L774.738 243.023C775.628 243.032 776.509 243.021 777.38 242.991L776.857 219.15L776.874 218.966Z" fill="#00CCAA"/>
<path d="M223.028 672.051C232.432 672.083 240.079 665.171 240.108 656.612C240.137 648.053 232.537 641.089 223.133 641.058C213.729 641.026 206.082 647.938 206.053 656.497C206.024 665.056 213.624 672.02 223.028 672.051Z" fill="#3F51B5"/>
</svg>
