<svg width="485" height="330" viewBox="0 0 485 330" fill="none" xmlns="http://www.w3.org/2000/svg">
<path d="M268.714 153.325H146.499C144.549 153.322 142.679 152.547 141.3 151.168C139.921 149.789 139.145 147.919 139.143 145.968V92.3977C139.145 90.4474 139.921 88.5776 141.3 87.1985C142.679 85.8194 144.549 85.0437 146.499 85.0415H268.714C270.665 85.0437 272.534 85.8194 273.913 87.1985C275.293 88.5776 276.068 90.4474 276.071 92.3977V145.968C276.068 147.919 275.293 149.789 273.913 151.168C272.534 152.547 270.665 153.322 268.714 153.325Z" fill="#E2E7F0"/>
<path d="M9.54542 21.9201C14.4705 21.9201 18.4631 17.9275 18.4631 13.0024C18.4631 8.07728 14.4705 4.0847 9.54542 4.0847C4.62032 4.0847 0.627747 8.07728 0.627747 13.0024C0.627747 17.9275 4.62032 21.9201 9.54542 21.9201Z" fill="#00CCAA"/>
<path d="M12.1683 19.2972C10.3008 19.2972 8.4752 18.7434 6.92244 17.7059C5.36967 16.6684 4.15944 15.1937 3.44478 13.4684C2.73011 11.743 2.54312 9.84449 2.90746 8.01287C3.27179 6.18126 4.17107 4.49881 5.49159 3.17829C6.81211 1.85777 8.49456 0.958484 10.3262 0.594153C12.1578 0.229823 14.0563 0.416812 15.7816 1.13148C17.507 1.84614 18.9817 3.05637 20.0192 4.60914C21.0567 6.1619 21.6105 7.98746 21.6105 9.85496C21.6077 12.3583 20.612 14.7584 18.8418 16.5285C17.0717 18.2987 14.6716 19.2944 12.1683 19.2972ZM12.1683 1.46186C10.5083 1.46186 8.88555 1.95411 7.50531 2.87635C6.12507 3.7986 5.04931 5.10943 4.41405 6.64307C3.7788 8.1767 3.61259 9.86427 3.93644 11.4924C4.26029 13.1205 5.05965 14.616 6.23344 15.7898C7.40724 16.9636 8.90275 17.763 10.5308 18.0868C12.1589 18.4107 13.8465 18.2444 15.3802 17.6092C16.9138 16.9739 18.2246 15.8982 19.1469 14.5179C20.0691 13.1377 20.5614 11.515 20.5614 9.85496C20.5588 7.62975 19.6737 5.49641 18.1003 3.92295C16.5268 2.34948 14.3935 1.46439 12.1683 1.46186Z" fill="#1B212C"/>
<path d="M118.131 134.178C123.056 134.178 127.049 130.185 127.049 125.26C127.049 120.335 123.056 116.343 118.131 116.343C113.206 116.343 109.213 120.335 109.213 125.26C109.213 130.185 113.206 134.178 118.131 134.178Z" fill="#E2E7F0"/>
<path d="M120.754 131.555C118.886 131.555 117.061 131.001 115.508 129.964C113.955 128.926 112.745 127.452 112.031 125.726C111.316 124.001 111.129 122.102 111.493 120.271C111.858 118.439 112.757 116.757 114.077 115.436C115.398 114.116 117.08 113.216 118.912 112.852C120.744 112.488 122.642 112.675 124.367 113.389C126.093 114.104 127.567 115.314 128.605 116.867C129.642 118.42 130.196 120.245 130.196 122.113C130.193 124.616 129.198 127.016 127.428 128.786C125.657 130.557 123.257 131.552 120.754 131.555ZM120.754 113.72C119.094 113.72 117.471 114.212 116.091 115.134C114.711 116.056 113.635 117.367 113 118.901C112.365 120.435 112.198 122.122 112.522 123.75C112.846 125.378 113.645 126.874 114.819 128.048C115.993 129.221 117.488 130.021 119.117 130.345C120.745 130.668 122.432 130.502 123.966 129.867C125.5 129.232 126.81 128.156 127.733 126.776C128.655 125.396 129.147 123.773 129.147 122.113C129.145 119.888 128.26 117.754 126.686 116.181C125.113 114.607 122.979 113.722 120.754 113.72Z" fill="#1B212C"/>
<path d="M187.374 66.5084C192.299 66.5084 196.292 62.5158 196.292 57.5907C196.292 52.6656 192.299 48.6731 187.374 48.6731C182.449 48.6731 178.457 52.6656 178.457 57.5907C178.457 62.5158 182.449 66.5084 187.374 66.5084Z" fill="#00CCAA"/>
<path d="M189.997 63.8856C188.13 63.8856 186.304 63.3318 184.751 62.2943C183.198 61.2567 181.988 59.7821 181.274 58.0567C180.559 56.3314 180.372 54.4329 180.736 52.6012C181.101 50.7696 182 49.0872 183.32 47.7667C184.641 46.4461 186.323 45.5469 188.155 45.1825C189.987 44.8182 191.885 45.0052 193.61 45.7198C195.336 46.4345 196.81 47.6447 197.848 49.1975C198.886 50.7503 199.439 52.5758 199.439 54.4433C199.437 56.9467 198.441 59.3467 196.671 61.1169C194.9 62.887 192.5 63.8827 189.997 63.8856ZM189.997 46.0502C188.337 46.0502 186.714 46.5425 185.334 47.4647C183.954 48.387 182.878 49.6978 182.243 51.2314C181.608 52.7651 181.441 54.4526 181.765 56.0807C182.089 57.7088 182.888 59.2043 184.062 60.3781C185.236 61.5519 186.732 62.3513 188.36 62.6752C189.988 62.999 191.675 62.8328 193.209 62.1975C194.743 61.5623 196.053 60.4865 196.976 59.1063C197.898 57.726 198.39 56.1033 198.39 54.4433C198.388 52.2181 197.503 50.0848 195.929 48.5113C194.356 46.9378 192.222 46.0527 189.997 46.0502Z" fill="#1B212C"/>
<path d="M150.247 101.731H28.0329C26.0825 101.728 24.2127 100.953 22.8336 99.5736C21.4545 98.1945 20.6787 96.3247 20.6765 94.3743V40.804C20.6787 38.8537 21.4544 36.9838 22.8335 35.6046C24.2126 34.2255 26.0825 33.4497 28.0329 33.4475H150.247C152.198 33.4497 154.068 34.2255 155.447 35.6046C156.826 36.9838 157.602 38.8536 157.604 40.804V94.3743C157.602 96.3247 156.826 98.1945 155.447 99.5736C154.068 100.953 152.198 101.728 150.247 101.731Z" fill="#00CCAA"/>
<path d="M158.219 96.2357H36.0044C33.9846 96.2334 32.0481 95.43 30.6198 94.0017C29.1915 92.5735 28.3881 90.637 28.3858 88.6171V35.0466C28.3881 33.0267 29.1915 31.0902 30.6198 29.662C32.0481 28.2337 33.9846 27.4303 36.0044 27.428H158.219C160.239 27.4303 162.175 28.2337 163.604 29.6619C165.032 31.0902 165.835 33.0267 165.838 35.0466V88.6171C165.835 90.637 165.032 92.5735 163.604 94.0018C162.175 95.43 160.239 96.2334 158.219 96.2357ZM36.0044 28.4772C34.2627 28.4791 32.5929 29.1719 31.3613 30.4035C30.1297 31.6351 29.437 33.3049 29.435 35.0466V88.6171C29.437 90.3589 30.1297 92.0287 31.3613 93.2602C32.5929 94.4918 34.2627 95.1846 36.0044 95.1865H158.219C159.961 95.1846 161.631 94.4918 162.862 93.2602C164.094 92.0287 164.787 90.3589 164.789 88.6171V35.0466C164.787 33.3049 164.094 31.6351 162.862 30.4035C161.631 29.1719 159.961 28.4791 158.219 28.4772H36.0044Z" fill="#1B212C"/>
<path d="M276.686 147.83H154.471C152.451 147.827 150.515 147.024 149.086 145.596C147.658 144.167 146.855 142.231 146.852 140.211V86.6405C146.855 84.6207 147.658 82.6842 149.086 81.2559C150.515 79.8276 152.451 79.0243 154.471 79.022H276.686C278.706 79.0243 280.642 79.8276 282.07 81.2559C283.499 82.6842 284.302 84.6207 284.304 86.6405V140.211C284.302 142.231 283.499 144.167 282.07 145.596C280.642 147.024 278.706 147.827 276.686 147.83ZM154.471 80.0711C152.729 80.0731 151.06 80.7658 149.828 81.9974C148.596 83.229 147.904 84.8988 147.902 86.6405V140.211C147.904 141.953 148.596 143.623 149.828 144.854C151.059 146.086 152.729 146.779 154.471 146.781H276.686C278.427 146.779 280.097 146.086 281.329 144.854C282.56 143.623 283.253 141.953 283.255 140.211V86.6405C283.253 84.8988 282.56 83.229 281.329 81.9974C280.097 80.7659 278.427 80.0731 276.686 80.0711H154.471Z" fill="#1B212C"/>
<path d="M352.985 222.274C352.12 222.273 351.288 221.943 350.657 221.351C350.027 220.759 349.644 219.95 349.588 219.087L349.082 211.361C349.023 210.459 349.324 209.57 349.921 208.89C350.517 208.21 351.359 207.795 352.261 207.736L412.79 203.772C414.717 203.646 416.615 204.29 418.067 205.563C419.518 206.837 420.405 208.635 420.531 210.562C420.657 212.488 420.013 214.387 418.74 215.838C417.466 217.29 415.668 218.177 413.741 218.303L353.213 222.266C353.137 222.271 353.061 222.274 352.985 222.274Z" fill="#00CCAA"/>
<path d="M364.92 223.27C364.039 223.269 363.192 222.926 362.557 222.314C361.922 221.702 361.548 220.869 361.514 219.987L361.083 208.448C361.066 208.001 361.138 207.554 361.294 207.134C361.45 206.715 361.687 206.33 361.991 206.001C362.296 205.673 362.662 205.408 363.069 205.222C363.476 205.035 363.916 204.93 364.363 204.914L414.138 203.053C415.041 203.019 415.921 203.346 416.584 203.961C417.247 204.576 417.639 205.43 417.672 206.333L418.104 217.873C418.12 218.32 418.049 218.767 417.893 219.186C417.737 219.606 417.5 219.991 417.196 220.319C416.891 220.648 416.525 220.913 416.118 221.099C415.711 221.286 415.271 221.391 414.824 221.407L365.049 223.268C365.006 223.269 364.963 223.27 364.92 223.27Z" fill="#3F51B5"/>
<path d="M423.248 329.643H415.505C414.601 329.641 413.735 329.282 413.095 328.643C412.456 328.003 412.097 327.137 412.096 326.233V261.703C412.097 260.799 412.456 259.933 413.095 259.294C413.735 258.654 414.601 258.295 415.505 258.294H423.248C424.152 258.295 425.018 258.654 425.658 259.294C426.297 259.933 426.657 260.799 426.658 261.703V326.233C426.657 327.137 426.297 328.003 425.658 328.643C425.018 329.282 424.152 329.641 423.248 329.643Z" fill="#3F51B5"/>
<path d="M407.934 329.643H400.192C399.288 329.641 398.421 329.282 397.782 328.643C397.143 328.003 396.783 327.137 396.782 326.233V261.703C396.783 260.799 397.143 259.933 397.782 259.294C398.421 258.654 399.288 258.295 400.192 258.294H407.934C408.838 258.295 409.705 258.654 410.344 259.294C410.983 259.933 411.343 260.799 411.344 261.703V326.233C411.343 327.137 410.983 328.003 410.344 328.643C409.705 329.282 408.838 329.641 407.934 329.643Z" fill="#3F51B5"/>
<path d="M411.489 190.95C426.264 190.95 438.242 178.973 438.242 164.197C438.242 149.422 426.264 137.444 411.489 137.444C396.713 137.444 384.736 149.422 384.736 164.197C384.736 178.973 396.713 190.95 411.489 190.95Z" fill="#00CCAA"/>
<path d="M399.72 175.981C398.814 176 397.915 175.824 397.083 175.467C396.521 175.2 396.024 174.814 395.627 174.335C395.23 173.856 394.943 173.296 394.785 172.695C394.665 172.269 394.645 171.821 394.726 171.386C394.808 170.951 394.989 170.541 395.256 170.187C395.954 169.291 397.161 168.864 398.58 168.974L395.067 159.138L396.055 158.785L400.185 170.348L399.254 170.136C398.174 169.892 396.774 169.946 396.083 170.832C395.916 171.061 395.804 171.326 395.755 171.605C395.707 171.884 395.723 172.171 395.804 172.443C395.924 172.89 396.138 173.306 396.434 173.663C396.729 174.02 397.097 174.309 397.514 174.511C398.974 175.17 400.684 174.935 402.604 174.587L402.791 175.619C401.78 175.831 400.752 175.952 399.72 175.981Z" fill="#3F51B5"/>
<path d="M390.22 161.069L384.69 162.231L384.906 163.257L390.435 162.095L390.22 161.069Z" fill="#3F51B5"/>
<path d="M407.674 157.401L402.144 158.563L402.36 159.59L407.89 158.428L407.674 157.401Z" fill="#3F51B5"/>
<path d="M329.944 224.309L360.101 240.874C360.276 240.991 360.474 241.067 360.681 241.098C360.889 241.13 361.101 241.115 361.302 241.056C361.503 240.996 361.689 240.894 361.847 240.755C362.004 240.616 362.129 240.444 362.213 240.251L369.6 224.81C369.74 224.369 369.717 223.894 369.536 223.469C369.355 223.044 369.027 222.698 368.612 222.495L343.574 209.589C343.266 209.404 342.9 209.338 342.546 209.406C342.193 209.474 341.877 209.669 341.658 209.955L329.152 221.738C328.911 222.168 328.85 222.675 328.983 223.15C329.117 223.624 329.433 224.026 329.863 224.267C329.889 224.282 329.916 224.296 329.944 224.309Z" fill="#1B212C"/>
<path d="M331.956 222.028L360.228 238.188L367.751 224.628L343.498 211.439L331.956 222.028Z" fill="white"/>
<path d="M356.216 217.45C356.366 217.324 356.369 217.079 356.222 216.903C356.074 216.726 355.833 216.685 355.683 216.811C355.532 216.936 355.53 217.181 355.677 217.358C355.824 217.534 356.065 217.575 356.216 217.45Z" fill="#F7F9FC"/>
<path d="M345.63 231.216C345.73 231.132 345.732 230.969 345.634 230.851C345.536 230.734 345.375 230.706 345.275 230.79C345.174 230.874 345.173 231.037 345.271 231.154C345.369 231.272 345.53 231.3 345.63 231.216Z" fill="#F7F9FC"/>
<path d="M433.827 279.017H388.714C387.532 279.015 386.399 278.545 385.563 277.709C384.727 276.873 384.257 275.74 384.256 274.558L393.7 202.134C393.708 200.957 394.18 199.831 395.016 199.002C395.851 198.173 396.98 197.708 398.157 197.709H414.166C420.561 197.716 426.692 200.259 431.214 204.781C435.735 209.303 438.279 215.434 438.286 221.828V274.558C438.285 275.74 437.815 276.873 436.979 277.709C436.143 278.545 435.009 279.015 433.827 279.017Z" fill="#3F51B5"/>
<path d="M403.014 197.446L390.813 224.199L392.911 201.727C392.905 201.17 393.009 200.618 393.217 200.101C393.425 199.585 393.733 199.115 394.122 198.717C394.512 198.32 394.976 198.003 395.489 197.785C396.001 197.567 396.551 197.452 397.107 197.446H403.014Z" fill="#E2E7F0"/>
<path d="M363.379 248.778C362.721 248.778 362.076 248.588 361.524 248.231C360.971 247.874 360.533 247.364 360.263 246.764L357.094 239.699C356.911 239.291 356.81 238.85 356.797 238.403C356.784 237.955 356.859 237.509 357.018 237.091C357.177 236.672 357.418 236.289 357.725 235.964C358.032 235.638 358.401 235.376 358.809 235.193L414.154 210.365C415.916 209.575 417.919 209.517 419.724 210.204C421.528 210.891 422.986 212.266 423.777 214.028C424.567 215.79 424.625 217.794 423.938 219.598C423.251 221.403 421.876 222.861 420.114 223.651L364.769 248.479C364.332 248.676 363.858 248.778 363.379 248.778Z" fill="#00CCAA"/>
<path d="M379.522 245.13C378.864 245.131 378.219 244.941 377.667 244.584C377.114 244.226 376.676 243.717 376.406 243.116L370.993 231.05C370.624 230.225 370.597 229.287 370.919 228.442C371.241 227.598 371.884 226.915 372.709 226.544L418.154 206.157C418.563 205.974 419.003 205.873 419.451 205.86C419.899 205.847 420.344 205.922 420.763 206.081C421.181 206.24 421.564 206.481 421.89 206.788C422.216 207.095 422.478 207.464 422.661 207.872L428.074 219.938C428.257 220.347 428.358 220.787 428.371 221.235C428.384 221.682 428.309 222.128 428.149 222.547C427.99 222.965 427.75 223.348 427.443 223.674C427.135 223.999 426.767 224.261 426.358 224.445L380.913 244.832C380.475 245.028 380.001 245.13 379.522 245.13Z" fill="#3F51B5"/>
<path d="M405.553 147.424C401.197 145.819 397.616 150.047 393.669 151.014C389.893 151.94 385.825 149.762 383.808 146.587C381.455 142.883 382.038 138.074 384.178 134.418C386.523 130.413 390.698 127.956 395.123 126.883C400.194 125.652 405.479 126.258 410.484 127.507C415.285 128.631 419.94 130.307 424.355 132.501C428.347 134.567 432.131 137.394 434.464 141.308C436.584 144.866 437.633 149.294 436.584 153.37C436.006 155.475 434.896 157.394 433.36 158.945C431.78 160.617 429.97 162.067 428.496 163.842C426.268 166.524 424.771 170.921 426.968 174.094C427.444 174.789 428.084 175.356 428.83 175.745C429.728 176.212 430.524 174.855 429.625 174.386C428.045 173.563 427.471 171.893 427.514 170.191C427.599 168.258 428.337 166.412 429.609 164.954C431.152 163.1 433.06 161.598 434.69 159.825C436.266 158.173 437.42 156.164 438.053 153.97C439.211 149.726 438.306 145.104 436.256 141.28C434.038 137.143 430.32 134.019 426.274 131.748C421.87 129.277 416.976 127.621 412.117 126.306C406.904 124.895 401.429 124.1 396.064 125.077C391.413 125.923 386.868 128.168 383.943 131.967C381.213 135.513 379.909 140.346 381.229 144.71C381.856 146.685 382.997 148.458 384.537 149.846C386.076 151.234 387.958 152.187 389.987 152.606C392.051 152.985 394.182 152.707 396.08 151.811C398.124 150.895 399.981 149.471 402.155 148.862C403.13 148.564 404.176 148.592 405.134 148.941C406.086 149.292 406.496 147.771 405.553 147.424Z" fill="#3F51B5"/>
<path d="M484.375 329.603H316.359C316.194 329.603 316.035 329.537 315.919 329.42C315.802 329.303 315.736 329.144 315.736 328.979C315.736 328.813 315.802 328.655 315.919 328.538C316.035 328.421 316.194 328.355 316.359 328.354H484.375C484.541 328.354 484.7 328.42 484.817 328.537C484.934 328.654 485 328.813 485 328.979C485 329.144 484.934 329.303 484.817 329.42C484.7 329.537 484.541 329.603 484.375 329.603Z" fill="#1B212C"/>
</svg>
