<svg width="584" height="248" viewBox="0 0 584 248" fill="none" xmlns="http://www.w3.org/2000/svg">
<g clip-path="url(#clip0_2433_3073)">
<mask id="mask0_2433_3073" style="mask-type:luminance" maskUnits="userSpaceOnUse" x="0" y="1" width="584" height="247">
<path d="M584 1.14001H0V247.339H584V1.14001Z" fill="white"/>
</mask>
<g mask="url(#mask0_2433_3073)">
<path d="M450.838 206.215C496.87 206.215 534.185 168.899 534.185 122.868C534.185 76.8368 496.87 39.5209 450.838 39.5209C404.807 39.5209 367.491 76.8368 367.491 122.868C367.491 168.899 404.807 206.215 450.838 206.215Z" fill="#3F51B5"/>
<path d="M452.064 33.3925C449.777 33.3925 447.759 35.169 446.41 37.8976C445.222 33.7945 442.724 30.9411 439.807 30.9411C439.609 30.9608 439.412 30.9939 439.218 31.04C438.097 26.6592 435.491 23.5869 432.453 23.5869C428.391 23.5869 425.098 29.0746 425.098 35.8439C425.098 42.6132 428.391 48.1009 432.453 48.1009C432.651 48.0812 432.848 48.0481 433.041 48.002C434.163 52.3827 436.769 55.455 439.807 55.455C442.094 55.455 444.111 53.6786 445.46 50.9499C446.649 55.053 449.147 57.9064 452.064 57.9064C456.125 57.9064 459.418 52.4187 459.418 45.6494C459.418 38.8801 456.125 33.3925 452.064 33.3925Z" fill="#3F51B5"/>
<path d="M372.256 125.461L326.342 118.014C324.029 117.639 321.673 117.263 319.351 117.59C317.03 117.916 314.707 119.059 313.524 121.082C312.955 122.055 312.679 123.171 312.73 124.296C312.78 125.421 313.154 126.508 313.808 127.426C314.461 128.344 315.366 129.053 316.412 129.469C317.459 129.885 318.604 129.99 319.709 129.771C317.203 129.69 314.569 129.636 312.345 130.794C310.121 131.952 308.546 134.766 309.63 137.027C309.956 137.651 310.396 138.208 310.928 138.669C312.601 140.169 314.665 141.165 316.881 141.54C319.097 141.916 321.374 141.657 323.449 140.792C321.759 143.216 318.405 143.576 315.503 144.138C312.602 144.699 309.248 146.34 309.14 149.293C309.019 152.611 312.968 154.375 316.219 155.05C333.578 158.622 351.597 157.154 368.149 150.818C370.009 150.178 371.77 149.279 373.379 148.147C375.183 146.778 376.554 144.917 377.328 142.788C378.101 140.66 378.245 138.353 377.742 136.145C377.239 133.936 376.11 131.92 374.491 130.336C372.872 128.753 370.83 127.67 368.611 127.216" fill="#3F51B5"/>
<path d="M570.434 163.095C562.856 147.074 550.853 133.555 535.842 124.133C534.212 123.031 532.436 122.164 530.564 121.558C528.385 120.939 526.074 120.962 523.908 121.623C521.741 122.283 519.811 123.554 518.349 125.284C516.886 127.013 515.953 129.127 515.66 131.373C515.368 133.619 515.729 135.902 516.7 137.948L513.107 136.089C520.321 149.814 527.535 163.538 534.748 177.262C535.839 179.337 536.954 181.446 538.61 183.105C540.266 184.763 542.576 185.934 544.904 185.663C545.828 185.56 546.714 185.236 547.488 184.719C548.261 184.202 548.898 183.507 549.347 182.692C549.796 181.878 550.043 180.967 550.068 180.037C550.092 179.108 549.893 178.186 549.487 177.349C550.499 178.776 551.831 179.947 553.375 180.769C555.637 181.851 558.833 181.418 559.988 179.193C560.291 178.558 560.472 177.871 560.521 177.169C560.714 174.93 560.269 172.682 559.238 170.685C558.206 168.688 556.631 167.024 554.693 165.885C557.646 165.779 559.949 168.244 562.142 170.225C564.334 172.207 567.661 173.902 570.086 172.213C572.811 170.315 571.848 166.099 570.434 163.095Z" fill="#3F51B5"/>
<path d="M484.949 246.663L476.599 239.656L476.794 246.663H474.201L473.993 239.254L462.72 246.663H458.001L473.909 236.207L472.832 197.669L475.419 197.598L476.502 236.187L488.98 246.663H484.949Z" fill="#3F51B5"/>
<path d="M445.723 246.663L437.374 239.656L437.569 246.663H434.982L434.775 239.254L423.501 246.663H418.782L434.684 236.207L433.608 197.669L436.2 197.598L437.277 236.187L449.755 246.663H445.723Z" fill="#3F51B5"/>
<g filter="url(#filter0_d_2433_3073)">
<path d="M210.881 82.0867H0V151.315H7.98818V169.422L26.0939 151.315H210.881V82.0867Z" fill="#CBD2E0"/>
</g>
<path d="M205.024 88.8284H5.85779V144.211H205.024V88.8284Z" fill="white"/>
<path d="M119.365 105.53H23.4716V108.44H119.365V105.53Z" fill="#CBD2E0"/>
<path d="M190.605 115.597H23.4716V118.507H190.605V115.597Z" fill="#CBD2E0"/>
<path d="M190.442 125.664H23.4716V128.574H190.442V125.664Z" fill="#CBD2E0"/>
<path d="M354.24 238.46C354.24 238.46 355.245 217.397 375.852 219.845L354.24 238.46Z" fill="#CBD2E0"/>
<path d="M348.418 218.415C354.114 218.415 358.731 213.798 358.731 208.102C358.731 202.406 354.114 197.788 348.418 197.788C342.721 197.788 338.104 202.406 338.104 208.102C338.104 213.798 342.721 218.415 348.418 218.415Z" fill="#CBD2E0"/>
<path d="M349.651 225.469H346.74V245.848H349.651V225.469Z" fill="#CBD2E0"/>
<path d="M398.366 129.558C400.436 127.08 403.025 125.087 405.95 123.719C408.875 122.351 412.064 121.642 415.293 121.642C418.522 121.642 421.712 122.351 424.636 123.719C427.561 125.087 430.15 127.08 432.22 129.558C435.727 126.21 438.163 121.898 439.219 117.166C440.274 112.434 439.903 107.495 438.152 102.974C436.402 98.4526 433.349 94.5522 429.381 91.7658C425.414 88.9794 420.709 87.4321 415.862 87.3196C411.015 87.2071 406.243 88.5345 402.15 91.1338C398.058 93.7332 394.828 97.4878 392.869 101.923C390.91 106.358 390.31 111.274 391.146 116.05C391.981 120.826 394.214 125.247 397.562 128.754C397.823 129.028 398.092 129.296 398.366 129.558Z" fill="white"/>
<path d="M464.554 129.558C466.624 127.08 469.212 125.087 472.137 123.719C475.062 122.351 478.252 121.642 481.481 121.642C484.71 121.642 487.899 122.351 490.824 123.719C493.749 125.087 496.338 127.08 498.408 129.558C501.915 126.21 504.35 121.898 505.406 117.166C506.462 112.434 506.091 107.495 504.34 102.974C502.589 98.4526 499.537 94.5522 495.569 91.7658C491.601 88.9794 486.896 87.4321 482.049 87.3196C477.202 87.2071 472.431 88.5345 468.338 91.1338C464.245 93.7332 461.015 97.4878 459.056 101.923C457.098 106.358 456.498 111.274 457.333 116.05C458.169 120.826 460.401 125.247 463.749 128.754C464.011 129.028 464.279 129.296 464.554 129.558Z" fill="white"/>
<path d="M406.93 111.912C411.588 111.912 415.363 108.137 415.363 103.48C415.363 98.8227 411.588 95.0474 406.93 95.0474C402.273 95.0474 398.498 98.8227 398.498 103.48C398.498 108.137 402.273 111.912 406.93 111.912Z" fill="#3F51B5"/>
<path d="M473.116 111.912C477.773 111.912 481.548 108.137 481.548 103.48C481.548 98.8227 477.773 95.0474 473.116 95.0474C468.459 95.0474 464.683 98.8227 464.683 103.48C464.683 108.137 468.459 111.912 473.116 111.912Z" fill="#3F51B5"/>
<path d="M390.779 153.51C396.195 153.51 400.585 149.12 400.585 143.705C400.585 138.289 396.195 133.899 390.779 133.899C385.364 133.899 380.974 138.289 380.974 143.705C380.974 149.12 385.364 153.51 390.779 153.51Z" fill="#00CCAA"/>
<path d="M503.543 153.51C508.959 153.51 513.349 149.12 513.349 143.705C513.349 138.289 508.959 133.899 503.543 133.899C498.128 133.899 493.738 138.289 493.738 143.705C493.738 149.12 498.128 153.51 503.543 153.51Z" fill="#00CCAA"/>
<path d="M447.161 124.093L439.807 155.961L452.063 143.705L447.161 124.093Z" fill="#00CCAA"/>
<g filter="url(#filter1_d_2433_3073)">
<path d="M37.691 1.14001H342.051V101.056H330.522V127.187L304.391 101.056H37.691V1.14001Z" fill="#00CCAA"/>
</g>
<path d="M333.597 10.87H46.1456V90.8029H333.597V10.87Z" fill="white"/>
<path d="M207.662 34.2068H69.2614V38.4069H207.662V34.2068Z" fill="#00CCAA"/>
<path d="M310.482 48.7363H69.2614V52.9364H310.482V48.7363Z" fill="#00CCAA"/>
<path d="M310.245 63.2659H69.2614V67.466H310.245V63.2659Z" fill="#00CCAA"/>
<path d="M583.324 247.339H325.772C325.592 247.339 325.42 247.268 325.294 247.141C325.167 247.015 325.096 246.843 325.096 246.663C325.096 246.484 325.167 246.312 325.294 246.185C325.42 246.059 325.592 245.987 325.772 245.987H583.324C583.503 245.987 583.675 246.059 583.802 246.185C583.929 246.312 584 246.484 584 246.663C584 246.843 583.929 247.015 583.802 247.141C583.675 247.268 583.503 247.339 583.324 247.339Z" fill="#00CCAA"/>
</g>
</g>
<defs>
<filter id="filter0_d_2433_3073" x="-16" y="72.0867" width="242.881" height="119.336" filterUnits="userSpaceOnUse" color-interpolation-filters="sRGB">
<feFlood flood-opacity="0" result="BackgroundImageFix"/>
<feColorMatrix in="SourceAlpha" type="matrix" values="0 0 0 0 0 0 0 0 0 0 0 0 0 0 0 0 0 0 127 0" result="hardAlpha"/>
<feOffset dy="6"/>
<feGaussianBlur stdDeviation="8"/>
<feComposite in2="hardAlpha" operator="out"/>
<feColorMatrix type="matrix" values="0 0 0 0 0 0 0 0 0 0 0 0 0 0 0 0 0 0 0.12 0"/>
<feBlend mode="normal" in2="BackgroundImageFix" result="effect1_dropShadow_2433_3073"/>
<feBlend mode="normal" in="SourceGraphic" in2="effect1_dropShadow_2433_3073" result="shape"/>
</filter>
<filter id="filter1_d_2433_3073" x="21.691" y="-8.85999" width="336.36" height="158.047" filterUnits="userSpaceOnUse" color-interpolation-filters="sRGB">
<feFlood flood-opacity="0" result="BackgroundImageFix"/>
<feColorMatrix in="SourceAlpha" type="matrix" values="0 0 0 0 0 0 0 0 0 0 0 0 0 0 0 0 0 0 127 0" result="hardAlpha"/>
<feOffset dy="6"/>
<feGaussianBlur stdDeviation="8"/>
<feComposite in2="hardAlpha" operator="out"/>
<feColorMatrix type="matrix" values="0 0 0 0 0 0 0 0 0 0 0 0 0 0 0 0 0 0 0.12 0"/>
<feBlend mode="normal" in2="BackgroundImageFix" result="effect1_dropShadow_2433_3073"/>
<feBlend mode="normal" in="SourceGraphic" in2="effect1_dropShadow_2433_3073" result="shape"/>
</filter>
<clipPath id="clip0_2433_3073">
<rect width="584" height="247" fill="white" transform="translate(0 0.727295)"/>
</clipPath>
</defs>
</svg>
